<svg id="圖層_1" data-name="圖層 1" xmlns="http://www.w3.org/2000/svg" viewBox="0 0 185.49 43.73"><defs><style>.cls-1{fill:#cbd0cc;}.cls-2{fill:#b4bac0;}.cls-3{fill:#fff;}</style></defs><title>cloud</title><path class="cls-1" d="M36.48,8.13a7.21,7.21,0,0,1,6.23,2.07,5.4,5.4,0,0,1,1.31,2,13.07,13.07,0,0,0-2.5-.24,7.31,7.31,0,0,0-6.34,3.9,7.54,7.54,0,0,0-1,3.8,11.37,11.37,0,0,0-1-.75,3.88,3.88,0,0,0-4.3.3c-.33.29-.47.27-.66-.12a5.5,5.5,0,0,0-8.94-1.18,4.81,4.81,0,0,0-1.18,2.21c-.1.46-.24.59-.73.35a6.86,6.86,0,0,0-4.83-.57c-.31.07-.5.07-.6-.3a9.45,9.45,0,0,0-5.28-6.53.37.37,0,0,1-.31-.24,2.85,2.85,0,0,1,4-.75,2.34,2.34,0,0,1,.31.24c.28.23.4.22.65,0A4,4,0,0,1,17,13l0,0a.74.74,0,0,0,.72.33,2.26,2.26,0,0,1,1.6.32c.33.19.38.05.48-.25a7,7,0,0,1,8.83-4.54,7.12,7.12,0,0,1,2.82,1.71c.22.22.35.24.6,0a15.61,15.61,0,0,1,2.72-2,.56.56,0,0,0,.53-.21c.37,0,.67-.22,1-.24.05,0,.11,0,.13-.07Z"/><path class="cls-2" d="M125.1,13.85a1.74,1.74,0,0,1,1.13.3c.43.22.59.1.71-.32a8.13,8.13,0,0,1,13.34-3.75,8.67,8.67,0,0,1,2.08,3.05c.16.44.38.65.87.6a7,7,0,0,1,1.12,0,4.6,4.6,0,0,0,0,4.21.38.38,0,0,1,0,.54.51.51,0,0,1-.18.09,3.36,3.36,0,0,0-1.34.95c-.32.4-.51.28-.75-.07a10.48,10.48,0,0,0-5.4-4,10.35,10.35,0,0,0-8.38.62c-.51.26-.77.27-1.06-.29A5.92,5.92,0,0,0,125.1,13.85Z"/><path class="cls-1" d="M60.56,12.51a6,6,0,0,1,4.28-1.43h.9a.27.27,0,0,0,.28.15,5.85,5.85,0,0,1,3.62,2.38c.37.51.57.58,1.11.24A8,8,0,0,1,81,15.53l.14.22c-.23.58-.78.87-1.12,1.35a13.81,13.81,0,0,0-1.75,3.55,6.43,6.43,0,0,0-8.81.25A9.78,9.78,0,0,0,68.8,18,8.4,8.4,0,0,0,61,12.54,1.71,1.71,0,0,1,60.56,12.51Z"/><path class="cls-2" d="M152.39,9.74c2.7-3.58,7-4.09,10.19-1.21.44.43.86,1.2,1.33,1.26s.58-1,.93-1.5c1.69-2.5,4.64-2.76,6.58-.59a6,6,0,0,1,1,1.56l.29.58a10,10,0,0,1,2-3.2A5.32,5.32,0,0,1,179,5h.91a13.73,13.73,0,0,0-1.58,2.72.52.52,0,0,1-.69.4c-2.37-.78-4.78,1.06-5.39,4.1a6.49,6.49,0,0,0-.11.77,1,1,0,0,1-.62,1,6.1,6.1,0,0,0-3.15,2.91l-.25.38H168a15.91,15.91,0,0,0-1.51-3.53c-2.54-4.34-7.18-5.59-10.87-2.93a.62.62,0,0,1-1,0A4,4,0,0,0,152.39,9.74Z"/><polygon class="cls-3" points="115.75 12.14 115.75 12.15 115.76 12.15 115.75 12.14"/><path class="cls-3" d="M185.35,0a3.74,3.74,0,0,0-2.56,2.18.47.47,0,0,1-.43.31A8.62,8.62,0,0,0,177.75,5a8.1,8.1,0,0,0-1.27,1.7.44.44,0,0,1-.56.25A3.55,3.55,0,0,0,171.53,10a.6.6,0,0,1-.5.59,4.66,4.66,0,0,0-2.53,1.82l-.2.24h-.09A9,9,0,0,0,167,10.44a6.78,6.78,0,0,0-8.74-1.83.63.63,0,0,1-.78,0A3.65,3.65,0,0,0,155.63,8a3.44,3.44,0,0,0-2.86,1.54.32.32,0,0,1-.3.15A5,5,0,0,0,149.21,11l-1,1.31a4.07,4.07,0,0,0-1.42-1.25c-1.9-.61-2.94-.27-4.37,1.42a3.56,3.56,0,0,0,0,3.3.3.3,0,0,1,0,.42.27.27,0,0,1-.14.07,2.63,2.63,0,0,0-1.05.75c-.25.31-.4.22-.59-.06a8.22,8.22,0,0,0-4.23-3.15,8.12,8.12,0,0,0-6.56.49c-.4.2-.61.21-.83-.23a4.69,4.69,0,0,0-1.68-1.51h-.06a.28.28,0,0,1-.35-.09h-.07a5.16,5.16,0,0,0-2.4.34,3.59,3.59,0,0,0-2,3.17c-.63.63-1.63,1.52-3.28-.13-.63-1.47-3.39-4-5.15-4a7,7,0,0,0-4.15.63,15.41,15.41,0,0,0-1.43,1,6.59,6.59,0,0,0-1.83,2.65c-.14.37-.27.44-.53.12-.11,0-.2,0-.24-.12a4.74,4.74,0,0,0-2.76-.58c-.36,0-.46-.11-.56-.42a6.65,6.65,0,0,0-5.13-4.62,6.5,6.5,0,0,0-5.52,1.28.59.59,0,0,1-.73.09,8.45,8.45,0,0,0-9.72,1.11,12,12,0,0,0-1.14,1.24A11.18,11.18,0,0,0,78.83,17a5.11,5.11,0,0,0-7,.2,8,8,0,0,0-.5-2.32,6.67,6.67,0,0,0-6.19-4.32h-.31a6.84,6.84,0,0,0-4.08,1.52.36.36,0,0,1-.51,0h0a4.49,4.49,0,0,0-2.5-.79.81.81,0,0,1-.72-.45,8.4,8.4,0,0,0-7.61-4c-.31,0-.61.18-.92.09H48.3a8.64,8.64,0,0,0-5.67,3.74c-.08.1-.15.27-.32.13a18.09,18.09,0,0,0-1.74-.93,11.57,11.57,0,0,0-2.27-.22,6.64,6.64,0,0,0-5.76,3.54,6.85,6.85,0,0,0-.87,3.46c-.34-.26-.61-.5-.92-.69a3.53,3.53,0,0,0-3.91.28c-.3.26-.42.24-.6-.11A5,5,0,0,0,19.51,14,4.9,4.9,0,0,0,18.12,15a4.48,4.48,0,0,0-1.07,2c-.09.42-.22.54-.66.32A6.25,6.25,0,0,0,12,16.8c-.28.07-.45.07-.54-.27a8.57,8.57,0,0,0-4.8-5.93.33.33,0,0,1-.28-.22l-2.16-.5c-.26-.06-.14-.28-.14-.43a5.22,5.22,0,0,0-4-5H0V43.23c0,.42.06.54.52.54H185.38l.11-.1V0Z"/></svg>