<svg id="圖層_1" data-name="圖層 1" xmlns="http://www.w3.org/2000/svg" xmlns:xlink="http://www.w3.org/1999/xlink" viewBox="0 0 56.69 51.34"><defs><style>.cls-1{fill:none;}.cls-2{fill:#244299;}.cls-3{clip-path:url(#clip-path);}.cls-4{fill:url(#未命名漸層_6);}.cls-5{fill:url(#未命名漸層_5);}.cls-6{fill:url(#未命名漸層_4);}.cls-7{fill:url(#未命名漸層_3);}.cls-8{fill:url(#未命名漸層_2);}.cls-9{fill:url(#未命名漸層_12);}.cls-10{fill:#284198;}</style><clipPath id="clip-path"><path class="cls-1" d="M48.41,19.58a8.34,8.34,0,0,0-5.06,1.69,12.57,12.57,0,0,0,1.36-5.7A13.08,13.08,0,0,0,31.46,2.66,13.08,13.08,0,0,0,18.21,15.57c0,.37,0,.73.05,1.09a10.81,10.81,0,0,0-5.68-1.6A10.47,10.47,0,0,0,2,25.39a10.47,10.47,0,0,0,10.6,10.33H30.66V33.14h2.65v2.58h7.95V33.14h2.65v2.58h4.5a8.07,8.07,0,1,0,0-16.14ZM41.25,33.14H38.6V30.56h2.65Zm0-7.76H38.63v5.17H36v2.59H33.33V28H36V25.38h2.63V22.8h2.65Z"/></clipPath><radialGradient id="未命名漸層_6" cx="16.85" cy="-0.35" r="31.25" gradientTransform="translate(0.58 0.1)" gradientUnits="userSpaceOnUse"><stop offset="0" stop-color="#5cc2d1"/><stop offset="0.26" stop-color="#50a5c4"/><stop offset="0.82" stop-color="#325ba3"/><stop offset="1" stop-color="#284198"/></radialGradient><radialGradient id="未命名漸層_5" cx="19.79" cy="-13.33" fx="10.955964328947829" fy="-20.143465851788516" r="29.92" gradientTransform="translate(0.58 14.11) scale(1 1.04)" gradientUnits="userSpaceOnUse"><stop offset="0" stop-color="#a5cd4a"/><stop offset="1" stop-color="#dcdee5" stop-opacity="0"/></radialGradient><radialGradient id="未命名漸層_4" cx="47.39" cy="-12.36" r="28.93" gradientTransform="translate(0.58 14.11) scale(1 1.04)" gradientUnits="userSpaceOnUse"><stop offset="0" stop-color="#ebc245"/><stop offset="0.11" stop-color="#eec85e" stop-opacity="0.86"/><stop offset="0.35" stop-color="#f3d693" stop-opacity="0.56"/><stop offset="0.57" stop-color="#f7e1bd" stop-opacity="0.32"/><stop offset="0.76" stop-color="#fae9dc" stop-opacity="0.14"/><stop offset="0.91" stop-color="#fcedee" stop-opacity="0.04"/><stop offset="1" stop-color="#fdeff5" stop-opacity="0"/></radialGradient><radialGradient id="未命名漸層_3" cx="51.9" cy="-1.44" r="26.8" gradientTransform="translate(0.58 14.11) scale(1 1.04)" gradientUnits="userSpaceOnUse"><stop offset="0" stop-color="#e73128"/><stop offset="0.1" stop-color="#ea4a43" stop-opacity="0.87"/><stop offset="0.35" stop-color="#f18481" stop-opacity="0.56"/><stop offset="0.57" stop-color="#f6b2b3" stop-opacity="0.32"/><stop offset="0.76" stop-color="#fad3d7" stop-opacity="0.15"/><stop offset="0.91" stop-color="#fce7ed" stop-opacity="0.04"/><stop offset="1" stop-color="#fdeff5" stop-opacity="0"/></radialGradient><radialGradient id="未命名漸層_2" cx="62.64" cy="14.21" r="21.99" gradientTransform="translate(0.58 14.11) scale(1 1.04)" gradientUnits="userSpaceOnUse"><stop offset="0" stop-color="#85338e"/><stop offset="0.04" stop-color="#80358f" stop-opacity="0.94"/><stop offset="0.26" stop-color="#614198" stop-opacity="0.61"/><stop offset="0.48" stop-color="#494b9e" stop-opacity="0.34"/><stop offset="0.68" stop-color="#3751a3" stop-opacity="0.16"/><stop offset="0.86" stop-color="#2d56a6" stop-opacity="0.04"/><stop offset="1" stop-color="#2957a7" stop-opacity="0"/></radialGradient><radialGradient id="未命名漸層_12" cx="0.52" cy="20.75" r="30.7" gradientTransform="translate(0.58 0.1)" gradientUnits="userSpaceOnUse"><stop offset="0" stop-color="#2c3e96"/><stop offset="1" stop-color="#79c067"/></radialGradient></defs><title>logo</title><path class="cls-2" d="M6.1,45.94a1.63,1.63,0,0,0-.35-.39,1.87,1.87,0,0,0-.48-.27,1.67,1.67,0,0,0-.55-.09,1.87,1.87,0,0,0-.9.2,1.67,1.67,0,0,0-.6.55,2.34,2.34,0,0,0-.34.79,3.91,3.91,0,0,0-.1.91,3.71,3.71,0,0,0,.1.88,2.19,2.19,0,0,0,.34.76,1.67,1.67,0,0,0,.6.55,1.87,1.87,0,0,0,.9.2,1.42,1.42,0,0,0,1.12-.44,2,2,0,0,0,.5-1.16H7.86a3.53,3.53,0,0,1-.31,1.21,3,3,0,0,1-.66.92,2.6,2.6,0,0,1-1,.58,3.38,3.38,0,0,1-1.21.2,3.69,3.69,0,0,1-1.48-.28,3.08,3.08,0,0,1-1.11-.79,3.42,3.42,0,0,1-.69-1.17,4.34,4.34,0,0,1-.24-1.46,4.52,4.52,0,0,1,.24-1.49A3.61,3.61,0,0,1,2.13,45a3.1,3.1,0,0,1,1.11-.8,3.52,3.52,0,0,1,1.48-.29A3.39,3.39,0,0,1,5.83,44a3,3,0,0,1,.94.49,2.7,2.7,0,0,1,.69.81,3,3,0,0,1,.34,1.1H6.28A1.43,1.43,0,0,0,6.1,45.94Z"/><path class="cls-2" d="M10.49,44v7.14H9.07V44Z"/><path class="cls-2" d="M11.89,47.48a2.56,2.56,0,0,1,.54-.87,2.6,2.6,0,0,1,.85-.55,2.92,2.92,0,0,1,1.1-.19,3,3,0,0,1,1.1.19,2.6,2.6,0,0,1,.85.55,2.56,2.56,0,0,1,.54.87,3.06,3.06,0,0,1,.19,1.12,3,3,0,0,1-.19,1.12,2.52,2.52,0,0,1-.54.86,2.29,2.29,0,0,1-.85.54,3,3,0,0,1-1.1.19,2.92,2.92,0,0,1-1.1-.19,2.29,2.29,0,0,1-.85-.54,2.52,2.52,0,0,1-.54-.86,3.24,3.24,0,0,1-.19-1.12A3.29,3.29,0,0,1,11.89,47.48Zm1.29,1.73a1.63,1.63,0,0,0,.21.53,1.15,1.15,0,0,0,.39.37,1.36,1.36,0,0,0,1.2,0,1.07,1.07,0,0,0,.39-.37,1.63,1.63,0,0,0,.21-.53,3.13,3.13,0,0,0,0-1.22,1.47,1.47,0,0,0-.21-.53,1.07,1.07,0,0,0-.39-.37,1.27,1.27,0,0,0-1.2,0,1.15,1.15,0,0,0-.39.37,1.47,1.47,0,0,0-.21.53,3.13,3.13,0,0,0,0,1.22Z"/><path class="cls-2" d="M21.73,51.18v-.72h0a1.56,1.56,0,0,1-.7.65,2,2,0,0,1-.88.2,2.44,2.44,0,0,1-.93-.15,1.34,1.34,0,0,1-.58-.42,1.72,1.72,0,0,1-.3-.67,4.79,4.79,0,0,1-.08-.88V46h1.42v2.92a1.86,1.86,0,0,0,.2,1,.78.78,0,0,0,.71.31,1,1,0,0,0,.84-.34,1.88,1.88,0,0,0,.26-1.14V46h1.42v5.17Z"/><path class="cls-2" d="M28.09,50.52a1.49,1.49,0,0,1-.66.61,2.43,2.43,0,0,1-1.93,0,2,2,0,0,1-.73-.61,2.83,2.83,0,0,1-.43-.89,3.58,3.58,0,0,1-.14-1,3.31,3.31,0,0,1,.14-1,2.67,2.67,0,0,1,.43-.86,2.07,2.07,0,0,1,1.72-.82,2,2,0,0,1,.87.19,1.55,1.55,0,0,1,.66.58h0V44h1.42v7.14H28.11v-.66ZM28,48a1.42,1.42,0,0,0-.21-.52,1.09,1.09,0,0,0-.37-.37,1.16,1.16,0,0,0-.58-.14,1.17,1.17,0,0,0-.59.14,1.15,1.15,0,0,0-.39.37,1.68,1.68,0,0,0-.21.53,3,3,0,0,0-.06.61,2.46,2.46,0,0,0,.07.6,1.62,1.62,0,0,0,.22.54,1.41,1.41,0,0,0,.39.38,1.15,1.15,0,0,0,.57.14,1.07,1.07,0,0,0,1-.51,1.83,1.83,0,0,0,.2-.54,3.18,3.18,0,0,0,.06-.62A3,3,0,0,0,28,48Z"/><path class="cls-2" d="M32.13,46v.72h0a1.7,1.7,0,0,1,.7-.66,2.13,2.13,0,0,1,.88-.2,2.5,2.5,0,0,1,.94.15,1.52,1.52,0,0,1,.58.43,1.75,1.75,0,0,1,.29.68,3.88,3.88,0,0,1,.09.87v3.18H34.21V48.26a1.72,1.72,0,0,0-.2-.95A.75.75,0,0,0,33.3,47a1,1,0,0,0-.84.35,1.92,1.92,0,0,0-.26,1.13v2.71H30.78V46Z"/><path class="cls-2" d="M38.43,46v5.17H37V46Z"/><path class="cls-2" d="M39.26,47V46h.85v-.4a1.53,1.53,0,0,1,.43-1.13,1.72,1.72,0,0,1,1.3-.44h.38l.37,0v1.06a4.28,4.28,0,0,0-.52,0,.53.53,0,0,0-.41.13.65.65,0,0,0-.13.46V46h1v1h-1v4.22H40.11V47Z"/><path class="cls-2" d="M44.84,46v5.17H43.42V46Z"/><path class="cls-2" d="M47.74,49.94a1.25,1.25,0,0,0,.92.31A1.29,1.29,0,0,0,49.4,50a.93.93,0,0,0,.38-.46H51a2.37,2.37,0,0,1-.92,1.33,2.67,2.67,0,0,1-1.5.4,2.92,2.92,0,0,1-1.1-.19,2.22,2.22,0,0,1-.83-.56,2.35,2.35,0,0,1-.53-.86A3.21,3.21,0,0,1,46,48.6a2.92,2.92,0,0,1,.19-1.08,2.45,2.45,0,0,1,.54-.87,2.56,2.56,0,0,1,.83-.57,2.7,2.7,0,0,1,1.08-.21,2.47,2.47,0,0,1,1.15.25,2.26,2.26,0,0,1,.81.69,2.75,2.75,0,0,1,.45,1,3.66,3.66,0,0,1,.1,1.15H47.39A1.39,1.39,0,0,0,47.74,49.94Zm1.6-2.72a1,1,0,0,0-.77-.28,1.2,1.2,0,0,0-.57.12,1,1,0,0,0-.36.28,1,1,0,0,0-.19.36,1.63,1.63,0,0,0-.06.34H49.7A1.69,1.69,0,0,0,49.34,47.22Z"/><path class="cls-2" d="M53.56,46v1h0a2.07,2.07,0,0,1,.27-.45,2.57,2.57,0,0,1,.39-.35,2.23,2.23,0,0,1,.47-.22,1.82,1.82,0,0,1,.52-.08,1.18,1.18,0,0,1,.31.05v1.32l-.24,0-.27,0a1.47,1.47,0,0,0-.66.13,1.17,1.17,0,0,0-.43.36,1.46,1.46,0,0,0-.24.52,3.32,3.32,0,0,0-.07.65v2.33H52.21V46Z"/><rect class="cls-2" x="37.02" y="44.04" width="1.39" height="1.36"/><rect class="cls-2" x="43.45" y="44.03" width="1.39" height="1.36"/><g class="cls-3"><rect class="cls-4" x="0.98" y="2.31" width="57.82" height="34.49"/><rect class="cls-5" x="0.98" y="2.31" width="57.92" height="34.71"/><rect class="cls-6" x="0.98" y="2.31" width="57.92" height="34.71"/><rect class="cls-7" x="0.98" y="2.31" width="57.92" height="34.71"/><rect class="cls-8" x="0.98" y="2.31" width="57.92" height="34.71"/></g><path class="cls-9" d="M12,13.25a13,13,0,0,1,4.49.56,8.46,8.46,0,0,1,.3-1.69A15,15,0,0,1,26.09,1.8a10.85,10.85,0,0,0-6-1.8A10.57,10.57,0,0,0,9.41,10.05a8.06,8.06,0,0,0-.85,0A8.45,8.45,0,0,0,0,18.35,8,8,0,0,0,.73,21.7,12.21,12.21,0,0,1,12,13.25Z"/><rect class="cls-10" x="39.26" y="39.16" width="1.87" height="1.83"/><rect class="cls-10" x="41.25" y="35.72" width="2.66" height="2.6"/><rect class="cls-10" x="32.23" y="37.02" width="2.17" height="2.12"/><rect class="cls-10" x="36.6" y="41.62" width="1.39" height="1.36"/><rect class="cls-10" x="34.49" y="40.08" width="1.57" height="1.54"/></svg>