<svg id="圖層_1" data-name="圖層 1" xmlns="http://www.w3.org/2000/svg" viewBox="0 0 71.23 55.64"><defs><style>.cls-1{fill:#fff;}</style></defs><title>工作區域 1</title><path class="cls-1" d="M8.07,51.19c.28-1.6.58-3.18.76-4h0C8.23,48.38,6,52.28,4.52,54.92h-.8c-.4-2.09-1.23-6.44-1.37-7.78h0c-.11,1-.42,2.87-.68,4.31L1,54.92H.21l1.47-8.38H3c.58,2.75,1.27,6.32,1.39,7.32h0c.32-.69,2.56-4.65,4.11-7.32H9.74L8.26,54.92H7.41Z"/><path class="cls-1" d="M11.15,52c-.24,1.41.31,2.33,1.41,2.33a1.92,1.92,0,0,0,1.79-1h.81a2.94,2.94,0,0,1-2.76,1.75c-1.86,0-2.32-1.56-2.05-3.11.31-1.76,1.44-3.22,3.24-3.22s2.23,1.59,2,2.79c0,.18-.06.34-.1.5Zm3.66-.62c.18-1.11-.25-2-1.36-2s-1.83.81-2.15,2Z"/><path class="cls-1" d="M17.2,50.52c.17-.94.24-1.39.28-1.64h.79c0,.18-.08.6-.2,1.29a2.75,2.75,0,0,1,2.32-1.44l-.14.83a2.54,2.54,0,0,0-2.48,2.31l-.54,3.05h-.8Z"/><path class="cls-1" d="M25.28,53.11a2.93,2.93,0,0,1-2.75,2c-1.58,0-2.43-1.16-2.08-3.14a3.51,3.51,0,0,1,3.27-3.19,1.8,1.8,0,0,1,2,2H24.9a1.21,1.21,0,0,0-1.32-1.26c-1.19,0-2,1-2.29,2.45s.2,2.47,1.37,2.47a2,2,0,0,0,1.82-1.25Z"/><path class="cls-1" d="M28.66,46.08,28,49.83a2.55,2.55,0,0,1,2.14-1.1c.91,0,2,.48,1.62,2.34l-.67,3.85h-.81l.66-3.71c.19-1.12-.19-1.74-1.13-1.74-1.15,0-1.87.72-2.11,2.11l-.59,3.34H26.3l1.56-8.84Z"/><path class="cls-1" d="M37.42,53.69a7.77,7.77,0,0,0-.13,1.23h-.77a3.79,3.79,0,0,1,0-.87,2.38,2.38,0,0,1-2.11,1c-1.41,0-1.85-.92-1.69-1.83C33,51.9,34.15,51.28,36,51.28h1.09l.1-.57c.1-.57.05-1.3-1.21-1.3a1.49,1.49,0,0,0-1.61,1.06h-.78a2.37,2.37,0,0,1,2.53-1.74c1.42,0,2.11.59,1.87,1.94ZM37,51.9H35.86c-1.27,0-2.08.34-2.25,1.29a1,1,0,0,0,1.08,1.2c1.6,0,2-1.08,2.23-2.29Z"/><path class="cls-1" d="M39.91,50.4c.09-.53.18-1,.25-1.52H41c0,.18-.12.9-.16,1.07A2.38,2.38,0,0,1,43,48.73c1.1,0,1.91.65,1.62,2.29l-.69,3.9h-.8l.67-3.79c.17-1-.12-1.66-1.11-1.66-1.3,0-2,1-2.19,2.31l-.55,3.14h-.8Z"/><path class="cls-1" d="M46,48.88H47L47.36,47h.8l-.32,1.84h1.39l-.12.69H47.72l-.66,3.75c-.12.64,0,1,.53,1a2.06,2.06,0,0,0,.59-.07l-.11.65a2.62,2.62,0,0,1-.84.11c-.85,0-1.2-.43-1-1.42l.7-4H45.83Z"/><path class="cls-1" d="M51,46.54H54.1c1.58,0,2.51.87,2.24,2.38a3,3,0,0,1-3.16,2.44H51l-.62,3.56h-.87Zm.15,4.07h2.14a1.92,1.92,0,0,0,2.12-1.67c.19-1.07-.43-1.65-1.49-1.65H51.76Z"/><path class="cls-1" d="M56.66,54.92l1.56-8.84H59l-1.55,8.84Z"/><path class="cls-1" d="M64.34,53.15c-.11.59-.25,1.48-.3,1.77h-.78c0-.16.06-.55.14-1a2.26,2.26,0,0,1-2.09,1.13c-.94,0-1.92-.41-1.6-2.2l.7-4h.8l-.68,3.8c-.14.84,0,1.64,1.09,1.64s1.83-.69,2.12-2.32l.55-3.12h.8Z"/><path class="cls-1" d="M66.37,53.22c.06.73.51,1.16,1.4,1.16s1.47-.44,1.57-1.06-.11-.94-1.32-1.24c-1.56-.4-1.85-.89-1.71-1.7a2.18,2.18,0,0,1,2.37-1.65c1.45,0,1.94.87,1.88,1.72h-.79c0-.46-.26-1.05-1.24-1.05s-1.32.47-1.4.91.14.77,1.24,1c1.69.43,2,1,1.82,1.91a2.36,2.36,0,0,1-2.56,1.8c-1.46,0-2.1-.75-2.07-1.84Z"/><path class="cls-1" d="M59.28,21.59a10.58,10.58,0,0,0-3.39.58l5.22,5.17-3.64,3.73-1.94-1.65V42.84h3.75a10.63,10.63,0,0,0,0-21.25Z"/><path class="cls-1" d="M40,29.25l-2.12,1.64-3.21-3.46,5.41-5.54h4.4l3.55,5,3.3-5h3.07A16.6,16.6,0,0,0,55,17.41a16.84,16.84,0,0,0-33.68,0,14.76,14.76,0,0,0,.1,1.77A13.07,13.07,0,0,0,.65,29.75C0,40.05,11.52,42.84,11.52,42.84H40.3Z"/><path class="cls-1" d="M49.79,29.28V31.7a2.18,2.18,0,0,0,4.29,0V29.28Z"/></svg>